<svg fill="none" height="568" viewBox="0 0 724 568" width="724" xmlns="http://www.w3.org/2000/svg"><path d="m362.015 481.647c194.658 0 352.459-116.557 352.459-161.628 0-45.072-157.801-161.629-352.459-161.629s-352.45934 116.557-352.45934 161.629c0 45.071 157.80134 161.628 352.45934 161.628z" fill="#fff" stroke="#1d1d1b" stroke-width="2.86017"/><path d="m362.014 490.229c-109.459 0-202.843-41.587-248.835-66.356-66.1272-35.695-112.290328-78.397-112.290328-103.853 0-25.455 46.163228-67.614 112.261328-103.424 46.049-24.94 139.548-66.785 248.835-66.785 109.288 0 202.872 41.53 248.835 66.299 55.917 30.146 112.291 73.964 112.291 103.91 0 22.653-34.723 64.011-112.319 105.34-45.563 24.226-138.404 64.869-248.778 64.869zm0-323.199c-105.426 0-195.979 40.528-240.598 64.697-67.3853 36.524-103.2805 74.793-103.2805 88.35 0 13.558 32.8348 50.711 103.2805 88.666 44.476 24.025 134.915 64.297 240.598 64.297 106.627 0 196.551-39.385 240.655-62.924 71.218-37.926 103.224-75.566 103.224-90.182 0-13.357-32.807-50.825-103.253-88.665-44.475-24.054-134.885-64.297-240.626-64.297z" fill="#000"/><path d="m358.208 454.789c74.432 0 134.771-60.34 134.771-134.772s-60.339-134.771-134.771-134.771-134.771 60.339-134.771 134.771 60.339 134.772 134.771 134.772z" fill="#000"/><path d="m358.207 202.093c23.321 0 46.119 6.915 65.51 19.87s34.506 31.369 43.433 52.914 11.266 45.253 6.721 68.126c-4.546 22.874-15.772 43.886-32.258 60.381-16.486 16.494-37.493 27.73-60.365 32.286-22.871 4.557-46.58 2.23-68.129-6.687s-39.97-24.023-52.935-43.408c-12.964-19.385-19.89-42.179-19.902-65.5.038-31.264 12.475-61.236 34.582-83.343s52.079-34.544 83.343-34.582m0-33.692c-29.981 0-59.289 8.89-84.218 25.547s-44.358 40.332-55.832 68.031c-11.473 27.699-14.475 58.179-8.626 87.584 5.849 29.406 20.287 56.416 41.487 77.617 21.2 21.2 48.21 35.637 77.616 41.486 29.405 5.849 59.885 2.847 87.584-8.626s51.374-30.903 68.031-55.832 25.548-54.237 25.548-84.218c0-40.204-15.971-78.762-44.4-107.19-28.428-28.429-66.986-44.399-107.19-44.399z" fill="#6dcaf3"/><g fill="#000"><path d="m367.103 8.72017c0-4.73889-3.841-8.580522-8.58-8.580522s-8.581 3.841632-8.581 8.580522v139.60483c0 4.739 3.842 8.581 8.581 8.581s8.58-3.842 8.58-8.581z"/><path d="m215.779 38.5405c-.818-4.6678-5.265-7.7886-9.933-6.9706s-7.788 5.2651-6.97 9.9328l22.636 129.1703c.818 4.668 5.266 7.789 9.933 6.971 4.668-.818 7.789-5.265 6.971-9.933z"/><path d="m504.241 37.5899-22.637 129.1701c-.818 4.668 2.303 9.115 6.971 9.933s9.115-2.303 9.933-6.97l22.636-129.1708c.818-4.6677-2.302-9.1148-6.97-9.9329-4.668-.818-9.115 2.3029-9.933 6.9706z"/><path d="m664.95 124.086-44.317 94.996c-2.004 4.294-.147 9.4 4.148 11.404 4.294 2.003 9.4.146 11.403-4.149l44.318-94.996c2.004-4.295.146-9.4-4.148-11.404-4.295-2.003-9.4-.146-11.404 4.149z"/><path d="m85.742 114.698c-2.0028-4.295-7.108-6.153-11.4029-4.151-4.2949 2.003-6.1531 7.108-4.1503 11.403l44.3012 95.004c2.003 4.295 7.108 6.153 11.403 4.151 4.295-2.003 6.153-7.108 4.15-11.403z"/><path d="m467.356 477.7c-1.273-4.565-6.006-7.233-10.571-5.959-4.564 1.273-7.232 6.006-5.958 10.571l20.992 75.237c1.274 4.565 6.006 7.233 10.571 5.959 4.564-1.273 7.232-6.006 5.959-10.571z"/><path d="m268.152 479.873-21.09 74.987c-1.28 4.549 1.371 9.274 5.92 10.554 4.55 1.279 9.275-1.371 10.554-5.921l21.091-74.987c1.279-4.549-1.372-9.274-5.921-10.554-4.549-1.279-9.275 1.372-10.554 5.921z"/><path d="m117.58 422.13-42.9159 73.707c-2.3844 4.096-.9975 9.348 3.0978 11.733 4.0952 2.384 9.3481.997 11.7326-3.098l42.9155-73.707c2.385-4.095.998-9.348-3.098-11.732-4.095-2.385-9.348-.998-11.732 3.097z"/><path d="m595.978 429.692c-2.385-4.095-7.637-5.482-11.733-3.097-4.095 2.384-5.482 7.637-3.097 11.732l42.915 73.707c2.385 4.095 7.638 5.482 11.733 3.098 4.095-2.385 5.482-7.637 3.098-11.733z"/></g></svg>