<svg fill="none" height="946" viewBox="0 0 791 946" width="791" xmlns="http://www.w3.org/2000/svg"><path d="m690.224 622.421-108.339-19.07s59.25-120.468 91.701-200.828c13.31-33.024-8.694-71.987 9.84-118.214 32.272-80.574 110.056-99.394 103.902-34.849-7.084 74.385 11.771 154.136-1.575 187.161-22.29 55.099-95.494 185.836-95.494 185.836z" fill="#ffdd67"/><path d="m705.781 422.773c11.414-41.432-8.05-81.934 7.692-139.824 9.482-34.742 11.772-62.685 35.35-70.199-26.619 8.515-62.076 42.649-71.808 93.956-8.981 47.407 5.832 96.854-5.653 138.25-3.149 11.271-4.902 13.775-1.932 21.468.357.93 9.839 16.136 9.839 16.136 7.907-7.871 17.281-26.19 26.512-59.787z" fill="#eba353"/><path d="m669.436 466.387-114.529 27.622s22.291-152.276 30.019-250.74c3.184-40.466-30.913-71.63-26.62-128.196 7.514-98.6074 79.716-152.5265 93.455-82.1848 15.814 81.0758 59.357 156.3548 56.101 196.8208-5.331 67.515-38.462 236.714-38.462 236.714z" fill="#ffdd67"/><path d="m634.006 403.737s2.433-61.111-2.433-165.443c-1.967-42.935-43.006-73.705-45.94-133.635-1.717-35.9933-4.615-76.4594 14.67-91.8802-21.575 17.2813-48.624 73.9554-42.005 125.7272 6.118 47.873 35.529 90.307 37.425 133.242 1.968 44.903 5.474 89.483 5.474 89.483z" fill="#eba353"/><path d="m656.339 533.077c11.878 49.34 12.737 128.698-22.612 224.693 0 0-100.289-100.038-115.316-148.519 0 0-43.078-186.373-79.644-304.301-15.063-48.481-74.85-71.809-96.067-139.503-36.995-117.9991 32.595-208.6632 84.117-131.8098 59.428 88.5888 152.561 159.8248 167.588 208.3058 25.081 80.897 44.402 218.789 61.862 291.099z" fill="#ffdd67"/><path d="m652.973 523.309c-105.548-96.031-222.688-154.136-298.719-191.489-112.811-55.458-83.114 20.859-275.5697 71.272-25.4031 6.655-55.6363 25.188-32.5589 73.418 16.1006 33.489 85.9416 23.042 113.9566 19.536 24.687-3.077 47.264-9.983 70.914-16.137 29.446-7.621 70.556 2.147 98.893 10.591 2.576.751 5.152 1.574 7.692 2.433 17.925 5.939 35.958 14.24 47.694 29.052 9.052 11.45 13.56 25.761 17.746 39.751 5.796 19.356 11.378 39.178 10.555 59.357-1.575 37.39-25.117 70.593-53.132 95.352-16.888 14.884-36.173 27.836-57.962 33.382-16.351 4.15-33.453 4.007-50.305 3.363-18.14-.68-36.853-2.04-52.917-10.448-51.952-27.12-44.295-93.204-51.63-141.828-4.794-31.7-11.628-73.562-39.678-93.884-15.2065-11.02-34.4556-12.523-52.5956-10.77-60.7527 5.832-53.91892 62.828-52.59509 109.771 0 17.925-.03578 35.671-2.003627 53.525-2.182523 19.714 1.538497 36.101 5.545747 55.708 2.00362 9.875 4.00727 19.75 7.51357 29.196 3.5421 9.624 8.587 18.676 13.9538 27.407 16.673 27.192 36.745 51.235 59.8583 72.989 76.4599 71.844 174.7799 100.503 278.3249 100.503 69.053 0 112.918-1.824 155.352-22.863 71.129-35.206 247.877-293.638 131.739-399.294z" fill="#ffdd67"/><g fill="#eba353"><path d="m497.185 413.47s2.111-39.608-34.026-146.122c-15.241-44.903-87.05-91.702-101.039-156.426-8.373-38.8562-18.963-84.403 3.971-99.4659-26.011 17.0666-43.507 72.4526-29.16 139.0729 15.886 73.705 87.838 114.35 103.151 159.217 2.683 7.836 22.791 78.392 22.791 78.392l34.276 25.296z"/><path d="m96.1777 478.264c15.0273 1.718 30.2333 1.002 45.2603-.393 7.442-.68 14.848-1.539 22.29-2.326 25.511-2.719 51.021-8.73 76.639-9.947 21.682-1.001 43.686 2.577 65.046 6.476 21.36 3.9 50.27 21.897 66.013 36.853-17.711-11.521-41.325-17.568-59-23.042-12.487-3.864-27.693-5.116-40.681-6.583-10.268-1.181-20.716-2.755-30.949-1.252-9.696 1.431-18.64 4.365-27.907 7.012-27.55 7.872-56.03 12.738-84.582 15.242-19.249 1.682-38.7484 3.077-56.6379-4.222-5.9751-2.433-28.5159-7.012-33.1313-41.79-.2147-1.646 20.8949 12.308 25.1168 14.598 8.587 4.651 18.1042 7.371 27.7645 8.802 1.5743.25 3.1843.465 4.7586.644z"/><path d="m82.7291 523.062c5.8678 7.12 9.0879 15.993 12.2007 24.688 15.4212 43.006 30.8412 85.977 46.2622 128.983 5.546 15.457 11.235 31.2 21.253 44.259s25.188 24.437 41.611 24.258c-18.069-8.837-33.454-28.838-36.388-34.205-3.148-5.724-6.297-15.385-8.193-21.646-12.952-42.541-4.222-92.131-19.965-137.785-4.579-13.346-12.272-25.01-21.574-35.636-5.439-6.226-13.561-12.129-21.8971-15.85-8.1576-3.614-17.8179-4.258-26.1186-4.437-12.1649-.286-27.0847 2.219-26.6554 2.791.2862.358 12.952 4.794 15.9575 5.975 9.3383 3.757 17.0307 10.734 23.5425 18.605z"/></g></svg>