<svg fill="none" height="532" viewBox="0 0 946 532" width="946" xmlns="http://www.w3.org/2000/svg"><path d="m18.3022 449.376 9.4075-13.281v-337.5643l-9.4075-16.6016v-51.0957h909.4888v52.0181l-11.99 15.6792v337.5643l11.99 12.543v51.742h-909.4888zm-17.52388 81.717h944.44468v-531.0646797h-944.44468z" fill="#1e1e1c"/><g fill="#fff"><path d="m18.3018 521.405 17.4316-4.612-17.4316-4.703z"/><path d="m46.0613 513.75-1.6602.461-.3689-1.291 2.4903-.83h1.1067v9.407h-1.6601v-7.747z"/><path d="m49.6611 520.113 3.2281-2.767c1.2912-1.106 1.7524-1.66 1.7524-2.49 0-.922-.6456-1.476-1.4757-1.476s-1.4757.462-2.1213 1.384l-1.199-.922c.9223-1.199 1.7524-1.937 3.4125-1.937 1.8447 0 3.0437 1.107 3.0437 2.767 0 1.475-.7379 2.213-2.398 3.597l-1.9369 1.752h4.4271v1.476h-6.7329z"/><path d="m309.658 515.779h-.923v-1.291h.923v-.554c0-.738.184-1.383.553-1.752s.922-.554 1.568-.554c.553 0 .922.093 1.291.185v1.383c-.276-.092-.553-.184-.922-.184-.646 0-.922.369-.922 1.107v.369h1.844v1.291h-1.844v5.626h-1.568z"/><path d="m314.269 514.395h1.66v1.568c.461-1.014 1.291-1.752 2.49-1.752v1.66h-.092c-1.384 0-2.398.922-2.398 2.767v2.674h-1.66z"/><path d="m318.976 519.377c0-1.568 1.199-2.306 2.951-2.306.83 0 1.383.092 1.845.277v-.093c0-1.014-.646-1.568-1.753-1.568-.83 0-1.383.185-2.029.462l-.461-1.292c.738-.369 1.568-.553 2.675-.553 1.014 0 1.844.277 2.305.738.554.461.738 1.291.738 2.121v4.151h-1.568v-.923c-.461.554-1.199 1.015-2.305 1.015-1.199.184-2.398-.554-2.398-2.029zm4.796-.462v-.461c-.369-.184-.923-.276-1.568-.276-1.015 0-1.66.461-1.66 1.199 0 .645.553 1.106 1.383 1.106 1.015-.092 1.845-.645 1.845-1.568z"/><path d="m327.182 514.396h1.66v1.107c.461-.646 1.107-1.199 2.121-1.199 1.015 0 1.752.461 2.121 1.199.554-.738 1.292-1.199 2.398-1.199 1.568 0 2.491 1.015 2.491 2.675v4.519h-1.568v-3.966c0-1.107-.554-1.752-1.384-1.752-.922 0-1.475.645-1.475 1.752v3.966h-1.568v-3.966c0-1.107-.554-1.66-1.384-1.66-.922 0-1.476.646-1.476 1.752v3.966h-1.66v-7.194z"/><path d="m339.442 517.993c0-2.029 1.384-3.689 3.413-3.689 2.213 0 3.32 1.752 3.32 3.781v.462h-5.165c.185 1.106 1.015 1.752 2.029 1.752.738 0 1.384-.277 1.937-.83l.923.83c-.646.83-1.568 1.291-2.86 1.291-2.029 0-3.597-1.476-3.597-3.597zm5.165-.553c-.092-1.015-.738-1.845-1.752-1.845-1.015 0-1.66.738-1.845 1.845z"/><path d="m351.812 514.396h1.661v1.107c.461-.646 1.106-1.199 2.213-1.199 1.568 0 2.49 1.107 2.49 2.675v4.519h-1.568v-3.966c0-1.107-.553-1.752-1.475-1.752s-1.568.645-1.568 1.752v3.966h-1.66v-7.102z"/><path d="m359.733 517.993c0-2.029 1.568-3.689 3.782-3.689 2.121 0 3.689 1.66 3.689 3.597 0 2.029-1.568 3.689-3.781 3.689-2.122 0-3.69-1.66-3.69-3.597zm5.811 0c0-1.291-.922-2.306-2.121-2.306-1.292 0-2.122 1.015-2.122 2.214s.923 2.213 2.122 2.213c1.291.093 2.121-.922 2.121-2.121z"/><path d="m372.47 520.205 1.014-1.199c.738.646 1.568 1.107 2.398 1.107 1.107 0 1.845-.646 1.845-1.568s-.83-1.568-1.937-1.568c-.646 0-1.199.185-1.752.369l-1.015-.646.277-4.519h5.534v1.476h-4.151l-.184 2.121c.461-.184.83-.277 1.475-.277 1.845 0 3.229.923 3.229 2.952 0 1.937-1.384 3.136-3.413 3.136-1.383 0-2.49-.554-3.32-1.384z"/><path d="m380.58 520.113 3.228-2.767c1.291-1.106 1.753-1.66 1.753-2.49 0-.922-.646-1.476-1.476-1.476s-1.476.462-2.121 1.384l-1.199-.922c.922-1.199 1.752-1.937 3.412-1.937 1.845 0 3.044 1.107 3.044 2.767 0 1.475-.738 2.213-2.398 3.597l-1.937 1.568h4.427v1.475h-6.733z"/><path d="m390.449 513.75-1.66.461-.369-1.291 2.49-.83h1.107v9.407h-1.568z"/><path d="m764.084 521.405 17.432-4.612-17.432-4.703z"/><path d="m791.843 513.75-1.661.461-.369-1.291 2.491-.83h1.107v9.407h-1.661v-7.747z"/><path d="m797.105 513.75-1.66.461-.369-1.291 2.49-.83h1.107v9.407h-1.66v-7.747z"/><path d="m18.3018 22.0695 17.4316-4.6116-17.4316-4.7037z"/><path d="m49.2021 20.0404h-4.7037l-.2767-1.199 5.1649-6.0872h1.3835v5.9027h1.2912v1.3835h-1.2912v2.1213h-1.568zm0-1.3835v-3.6892l-3.0436 3.6892z"/><path d="m53.4443 20.8711 3.2281-2.7669c1.2913-1.1068 1.7524-1.6601 1.7524-2.4902 0-.9223-.6456-1.4757-1.4757-1.4757s-1.4757.4611-2.1213 1.3835l-1.199-.9224c.9223-1.199 1.7524-1.9368 3.4125-1.9368 1.8447 0 3.0437 1.1068 3.0437 2.7669 0 1.4757-.7379 2.2135-2.398 3.597l-1.9369 1.5679h4.4271v1.4757h-6.7329z"/><path d="m146.041 16.4433h-.922v-1.3834h.922v-.4612c0-.7378.185-1.3834.554-1.7523.369-.369.922-.5534 1.568-.5534.553 0 .922.0922 1.291.1844v1.3835c-.277-.0922-.553-.1845-.922-.1845-.646 0-.923.369-.923 1.1068v.3689h1.845v1.2912h-1.845v5.6261h-1.568z"/><path d="m150.653 15.0595h1.66v1.5679c.462-1.0145 1.292-1.7524 2.491-1.7524v1.6602h-.093c-1.383 0-2.398.9223-2.398 2.7669v2.6747h-1.66z"/><path d="m155.36 20.1332c0-1.5679 1.199-2.3058 2.952-2.3058.83 0 1.383.0922 1.844.2767v-.1844c0-1.0146-.645-1.568-1.752-1.568-.83 0-1.384.1845-2.029.4612l-.461-1.2912c.738-.369 1.568-.5534 2.674-.5534 1.015 0 1.845.2767 2.306.7378.554.4612.738 1.2912.738 2.1213v4.1504h-1.568v-.9223c-.461.5534-1.199 1.0145-2.306 1.0145-1.199.1845-2.398-.5534-2.398-1.9368zm4.796-.5534v-.4612c-.369-.1844-.922-.2766-1.568-.2766-1.014 0-1.66.4611-1.66 1.1989 0 .6457.554 1.1068 1.384 1.1068 1.014-.0922 1.844-.6456 1.844-1.5679z"/><path d="m163.565 15.0605h1.661v1.1068c.461-.6456 1.106-1.199 2.121-1.199 1.014 0 1.752.4611 2.121 1.199.554-.7379 1.291-1.199 2.398-1.199 1.568 0 2.49 1.0145 2.49 2.6746v4.5194h-1.567v-3.966c0-1.1067-.554-1.7523-1.384-1.7523-.922 0-1.476.6456-1.476 1.7523v3.966h-1.752v-3.966c0-1.1067-.553-1.6601-1.383-1.6601-.923 0-1.476.6456-1.476 1.7524v3.9659h-1.753z"/><path d="m175.841 18.6575c0-2.0291 1.383-3.6892 3.412-3.6892 2.214 0 3.321 1.7524 3.321 3.7814v.4612h-5.165c.184 1.1067 1.014 1.7524 2.029 1.7524.738 0 1.383-.2767 1.937-.8301l.922.8301c-.646.83-1.568 1.2912-2.859 1.2912-2.029 0-3.597-1.4757-3.597-3.597zm5.165-.5534c-.092-1.0145-.738-1.8446-1.753-1.8446-1.014 0-1.66.7378-1.844 1.8446z"/><path d="m188.197 15.0605h1.66v1.1068c.462-.6456 1.107-1.199 2.214-1.199 1.568 0 2.49 1.1067 2.49 2.6746v4.5194h-1.568v-3.966c0-1.1067-.553-1.7523-1.475-1.7523-.923 0-1.568.6456-1.568 1.7523v3.966h-1.66v-7.1018z"/><path d="m196.132 18.6575c0-2.0291 1.568-3.6892 3.781-3.6892 2.122 0 3.69 1.6601 3.69 3.597 0 2.029-1.568 3.6892-3.782 3.6892-2.121 0-3.689-1.5679-3.689-3.597zm5.81 0c0-1.2912-.922-2.3058-2.121-2.3058-1.291 0-2.121 1.0146-2.121 2.2136s.922 2.2135 2.121 2.2135c1.291.0922 2.121-.9223 2.121-2.1213z"/><path d="m208.759 20.8698 1.014-1.199c.738.6456 1.568 1.1067 2.398 1.1067 1.107 0 1.845-.6456 1.845-1.5679s-.83-1.5679-1.937-1.5679c-.646 0-1.199.1845-1.752.3689l-1.015-.6456.277-4.5193h5.534v1.4757h-4.151l-.184 2.1213c.461-.1845.83-.2767 1.476-.2767 1.844 0 3.228.9223 3.228 2.9514 0 1.9368-1.384 3.1358-3.413 3.1358-1.291 0-2.398-.5534-3.32-1.3834z"/><path d="m216.965 20.8711 3.228-2.7669c1.291-1.1068 1.752-1.6601 1.752-2.4902 0-.9223-.645-1.4757-1.475-1.4757s-1.476.4611-2.122 1.3835l-1.199-.9224c.923-1.199 1.753-1.9368 3.413-1.9368 1.844 0 3.043 1.1068 3.043 2.7669 0 1.4757-.737 2.2135-2.398 3.597l-1.936 1.5679h4.427v1.4757h-6.733z"/><path d="m226.834 14.4143-1.66.4611-.369-1.2912 2.49-.83h1.107v9.4075h-1.66v-7.7474z"/><path d="m333.365 22.0695 17.432-4.6116-17.432-4.7037z"/><path d="m364.266 20.0404h-4.704l-.277-1.199 5.165-6.0872h1.384v5.9027h1.291v1.3835h-1.291v2.1213h-1.568zm0-1.3835v-3.6892l-3.044 3.6892z"/><path d="m368.413 20.6853 1.107-1.1068c.645.7379 1.383 1.199 2.49 1.199.922 0 1.568-.5533 1.568-1.3834 0-.9223-.83-1.4757-2.121-1.4757h-.738l-.277-1.0146 2.49-2.6746h-4.058v-1.3835h6.18v1.199l-2.583 2.6747c1.384.1844 2.767.9223 2.767 2.5825 0 1.7523-1.291 2.9513-3.228 2.9513-1.66 0-2.767-.6456-3.597-1.5679z"/><path d="m469.135 16.4433h-.922v-1.3834h.922v-.4612c0-.7378.185-1.3834.554-1.7523.369-.369.922-.5534 1.568-.5534.553 0 .922.0922 1.291.1844v1.3835c-.277-.0922-.554-.1845-.923-.1845-.645 0-.922.369-.922 1.1068v.3689h1.845v1.2912h-1.845v5.6261h-1.568z"/><path d="m473.746 15.0595h1.66v1.5679c.461-1.0145 1.291-1.7524 2.49-1.7524v1.6602h-.092c-1.383 0-2.398.9223-2.398 2.7669v2.6747h-1.66z"/><path d="m478.453 20.1332c0-1.5679 1.199-2.3058 2.951-2.3058.831 0 1.384.0922 1.845.2767v-.1844c0-1.0146-.645-1.568-1.752-1.568-.83 0-1.384.1845-2.029.4612l-.462-1.2912c.738-.369 1.568-.5534 2.675-.5534 1.015 0 1.845.2767 2.306.7378.553.4612.738 1.2912.738 2.1213v4.1504h-1.568v-.9223c-.461.5534-1.199 1.0145-2.306 1.0145-1.199.1845-2.398-.5534-2.398-1.9368zm4.796-.5534v-.4612c-.369-.1844-.922-.2766-1.568-.2766-1.014 0-1.66.4611-1.66 1.1989 0 .6457.553 1.1068 1.383 1.1068 1.107-.0922 1.845-.6456 1.845-1.5679z"/><path d="m486.754 15.0605h1.66v1.1068c.461-.6456 1.107-1.199 2.121-1.199 1.015 0 1.753.4611 2.122 1.199.553-.7379 1.291-1.199 2.398-1.199 1.568 0 2.49 1.0145 2.49 2.6746v4.5194h-1.568v-3.966c0-1.1067-.553-1.7523-1.383-1.7523-.923 0-1.476.6456-1.476 1.7523v3.966h-1.568v-3.966c0-1.1067-.554-1.6601-1.384-1.6601-.922 0-1.475.6456-1.475 1.7524v3.9659h-1.66v-7.194z"/><path d="m498.92 18.6575c0-2.0291 1.383-3.6892 3.412-3.6892 2.214 0 3.321 1.7524 3.321 3.7814v.4612h-5.165c.184 1.1067 1.014 1.7524 2.029 1.7524.738 0 1.383-.2767 1.937-.8301l.922.8301c-.646.83-1.568 1.2912-2.859 1.2912-2.029 0-3.597-1.4757-3.597-3.597zm5.257-.5534c-.092-1.0145-.738-1.8446-1.752-1.8446-1.015 0-1.66.7378-1.845 1.8446z"/><path d="m511.371 15.0605h1.66v1.1068c.461-.6456 1.107-1.199 2.214-1.199 1.568 0 2.49 1.1067 2.49 2.6746v4.5194h-1.568v-3.966c0-1.1067-.553-1.7523-1.476-1.7523-.922 0-1.567.6456-1.567 1.7523v3.966h-1.661v-7.1018z"/><path d="m519.211 18.6575c0-2.0291 1.568-3.6892 3.781-3.6892 2.122 0 3.69 1.6601 3.69 3.597 0 2.029-1.568 3.6892-3.782 3.6892-2.121 0-3.689-1.5679-3.689-3.597zm5.903 0c0-1.2912-.923-2.3058-2.122-2.3058-1.291 0-2.121 1.0146-2.121 2.2136s.922 2.2135 2.121 2.2135c1.292.0922 2.122-.9223 2.122-2.1213z"/><path d="m531.947 20.8698 1.015-1.199c.738.6456 1.568 1.1067 2.398 1.1067 1.107 0 1.844-.6456 1.844-1.5679s-.83-1.5679-1.936-1.5679c-.646 0-1.199.1845-1.753.3689l-1.014-.6456.276-4.5193h5.534v1.4757h-4.15l-.185 2.1213c.461-.1845.83-.2767 1.476-.2767 1.845 0 3.228.9223 3.228 2.9514 0 1.9368-1.383 3.1358-3.412 3.1358-1.384 0-2.491-.5534-3.321-1.3834z"/><path d="m540.152 20.8711 3.228-2.7669c1.292-1.1068 1.753-1.6601 1.753-2.4902 0-.9223-.646-1.4757-1.476-1.4757s-1.476.4611-2.121 1.3835l-1.199-.9224c.922-1.199 1.752-1.9368 3.412-1.9368 1.845 0 3.044 1.1068 3.044 2.7669 0 1.4757-.738 2.2135-2.398 3.597l-1.937 1.5679h4.427v1.4757h-6.733z"/><path d="m550.021 14.4143-1.66.4611-.369-1.2912 2.49-.83h1.107v9.4075h-1.568z"/></g></svg>