<svg fill="none" height="946" viewBox="0 0 946 946" width="946" xmlns="http://www.w3.org/2000/svg"><path d="m945.082 88.1112v-87.411981c-521.519 0-944.30368 422.796781-944.30368 944.444781h87.48238c0-473.211 383.6853-857.0328 856.8213-857.0328z" fill="#ff3e75"/><path d="m88.126 945.142h87.482c0-424.915 344.445-769.479 769.48-769.479v-87.412c-473.277-.1412-856.962 383.539-856.962 856.891z" fill="#ffd83b"/><path d="m945.09 263.079v-87.412c-424.895 0-769.48 344.564-769.48 769.479h87.483c0-376.761 305.344-682.067 681.997-682.067z" fill="#a2e56f"/><path d="m263.08 945.15h87.483c0-328.324 266.244-594.655 594.514-594.655v-87.412c-376.652 0-681.997 305.448-681.997 682.067z" fill="#66c1ff"/><path d="m945.079 437.897v-87.412c-328.27 0-594.515 266.331-594.515 594.656h87.483c0-280.17 227.145-507.244 507.173-507.244z" fill="#9757ff"/></svg>