<svg fill="none" height="945" viewBox="0 0 946 945" width="946" xmlns="http://www.w3.org/2000/svg"><path d="m921.529 448.84h-108.512l65.359-65.473c9.271-9.272 9.271-24.152 0-33.424-9.272-9.271-24.152-9.271-33.424 0l-98.783 98.783h-74.058l39.261-39.261c9.272-9.272 9.272-24.152 0-33.424-9.271-9.272-24.152-9.272-33.423 0l-72.685 72.685h-75.432l142.394-142.394h139.76c13.049 0 23.58-10.53 23.58-23.579s-10.531-23.58-23.58-23.58h-92.487l87.336-87.336c9.272-9.272 9.272-24.152 0-33.424-9.271-9.271-24.151-9.271-33.423 0l-87.336 87.336v-92.487c0-13.049-10.531-23.579-23.58-23.579s-23.58 10.53-23.58 23.579v139.761l-142.393 142.394v-75.432l72.685-72.685c9.271-9.272 9.271-24.152 0-33.424-9.272-9.271-24.152-9.271-33.424 0l-39.261 39.262v-74.059l98.783-98.782c9.271-9.272 9.271-24.1523 0-33.4239-9.272-9.2716-24.152-9.2716-33.424 0l-65.474 65.3589v-108.3975c0-13.0489-10.53-23.579617-23.579-23.579617s-23.58 10.530717-23.58 23.579617v108.5125l-65.473-65.4739c-9.272-9.2716-24.152-9.2716-33.424 0-9.271 9.2716-9.271 24.1519 0 33.4239l98.783 98.782v74.059l-39.261-39.262c-9.272-9.271-24.152-9.271-33.424 0-9.272 9.272-9.272 24.152 0 33.424l72.685 72.685v75.432l-142.394-142.394v-139.761c0-13.049-10.53-23.579-23.579-23.579s-23.58 10.53-23.58 23.579v92.487l-87.336-87.336c-9.272-9.271-24.152-9.271-33.424 0-9.271 9.272-9.271 24.152 0 33.424l87.336 87.336h-92.487c-13.049 0-23.579 10.531-23.579 23.58s10.53 23.579 23.579 23.579h139.761l142.394 142.394h-75.432l-72.685-72.685c-9.272-9.272-24.152-9.272-33.424 0-9.271 9.272-9.271 24.152 0 33.424l39.262 39.261h-74.059l-98.782-98.783c-9.272-9.271-24.1524-9.271-33.424 0-9.2716 9.272-9.2716 24.152 0 33.424l65.359 65.473h-108.283c-13.049 0-23.57968 10.645-23.57968 23.58 0 12.934 10.53068 23.58 23.57968 23.58h108.512l-65.359 65.473c-9.2716 9.272-9.2716 24.152 0 33.424 4.5785 4.578 10.6451 6.867 16.7117 6.867 6.0667 0 12.1333-2.289 16.7123-6.867l98.782-98.783h74.059l-39.262 39.261c-9.271 9.272-9.271 24.152 0 33.424 4.579 4.578 10.645 6.868 16.712 6.868s12.133-2.29 16.712-6.868l72.685-72.685h75.432l-142.394 142.393h-139.761c-13.049 0-23.579 10.531-23.579 23.58s10.53 23.58 23.579 23.58h92.487l-87.336 87.336c-9.271 9.272-9.271 24.152 0 33.423 4.579 4.579 10.645 6.868 16.712 6.868 6.066 0 12.133-2.289 16.712-6.868l87.336-87.336v92.487c0 13.049 10.531 23.58 23.58 23.58 13.048 0 23.579-10.531 23.579-23.58v-139.76l142.394-142.394v75.432l-72.685 72.685c-9.272 9.271-9.272 24.152 0 33.423 4.578 4.579 10.645 6.868 16.712 6.868 6.066 0 12.133-2.289 16.711-6.868l39.262-39.261v74.058l-98.783 98.783c-9.272 9.272-9.272 24.152 0 33.424 4.579 4.578 10.645 6.867 16.712 6.867 6.066 0 12.133-2.289 16.712-6.867l65.473-65.359v108.512c0 13.049 10.531 23.579 23.58 23.579s23.579-10.53 23.579-23.579v-108.512l65.474 65.359c4.579 4.578 10.645 6.867 16.712 6.867 6.066 0 12.133-2.289 16.711-6.867 9.272-9.272 9.272-24.152 0-33.424l-98.897-98.783v-74.058l39.262 39.261c4.578 4.579 10.645 6.868 16.711 6.868 6.067 0 12.134-2.289 16.712-6.868 9.272-9.271 9.272-24.152 0-33.423l-72.685-72.685v-75.432l142.394 142.394v139.76c0 13.049 10.531 23.58 23.58 23.58 13.048 0 23.579-10.531 23.579-23.58v-92.487l87.336 87.336c4.579 4.579 10.646 6.868 16.712 6.868 6.067 0 12.133-2.289 16.712-6.868 9.272-9.271 9.272-24.151 0-33.423l-87.336-87.336h92.487c13.049 0 23.579-10.531 23.579-23.58s-10.53-23.58-23.579-23.58h-139.761l-142.394-142.393h75.432l72.685 72.685c4.579 4.578 10.645 6.868 16.712 6.868s12.133-2.29 16.712-6.868c9.271-9.272 9.271-24.152 0-33.424l-39.261-39.261h74.058l98.783 98.783c4.578 4.578 10.645 6.867 16.711 6.867 6.067 0 12.134-2.289 16.712-6.867 9.272-9.272 9.272-24.152 0-33.424l-65.359-65.473h108.512c13.049 0 23.58-10.531 23.58-23.58s-10.531-23.58-23.58-23.58z" fill="#75d5ff"/></svg>