<svg fill="none" height="240" viewBox="0 0 946 240" width="946" xmlns="http://www.w3.org/2000/svg" xmlns:xlink="http://www.w3.org/1999/xlink"><linearGradient id="a"><stop offset="0" stop-color="#ff77ea"/><stop offset="1" stop-color="#efbe45"/></linearGradient><radialGradient id="b" cx="0" cy="0" gradientTransform="matrix(797.312 0 0 797.307 5.40319 274.766)" gradientUnits="userSpaceOnUse" r="1" xlink:href="#a"/><radialGradient id="c" cx="0" cy="0" gradientTransform="matrix(797.312 0 0 797.307 2.70616 274.765)" gradientUnits="userSpaceOnUse" r="1" xlink:href="#a"/><radialGradient id="d" cx="0" cy="0" gradientTransform="matrix(797.312 0 0 797.307 5.39861 2.29311)" gradientUnits="userSpaceOnUse" r="1" xlink:href="#a"/><radialGradient id="e" cx="0" cy="0" gradientTransform="matrix(797.312 0 0 797.307 2.71227 274.771)" gradientUnits="userSpaceOnUse" r="1" xlink:href="#a"/><radialGradient id="f" cx="0" cy="0" gradientTransform="matrix(797.312 0 0 797.307 5.40969 2.28786)" gradientUnits="userSpaceOnUse" r="1" xlink:href="#a"/><radialGradient id="g" cx="0" cy="0" gradientTransform="matrix(797.312 0 0 797.307 2.70162 274.765)" gradientUnits="userSpaceOnUse" r="1" xlink:href="#a"/><path d="m329.086 17.6719-109.501 204.9271h-31.038l-22.825-162.785-89.2975 162.785h-31.0381l-27.4909-204.9271h28.6861l22.2472 167.1801 90.7622-167.1801h27.221l22.826 167.4501 90.184-167.4501z" fill="url(#b)"/><path d="m228.571 237.597h-53.016l-18.391-131.014-71.8696 131.014h-52.9768l-31.53928-234.88509h58.91448l17.9289 134.60009 73.0643-134.60009h49.199l18.391 134.83109 72.602-134.83109h63.195z" fill="url(#c)"/><path d="m341.612 138.59c0-68.2064 48.89-123.2648 124.423-123.2648 61.189 0 96.622 35.1248 96.622 86.3658 0 68.207-49.198 123.265-124.73 123.265-61.19 0-96.315-35.125-96.315-86.366zm191.472-35.125c0-36.8984-24.02-62.0757-69.401-62.0757-56.794 0-92.806 43.9157-92.806 95.4267 0 36.899 24.29 62.076 69.672 62.076 56.793 0 92.497-43.916 92.497-95.427z" fill="url(#d)"/><path d="m437.939 239.916c-67.589 0-111.274-39.79-111.274-101.326 0-80.0818 58.606-138.224766 139.382-138.224766 67.783 0 111.583 39.790166 111.583 101.325766 0 80.082-58.76 138.225-139.691 138.225zm25.756-183.567c-51.087 0-77.846 40.4842-77.846 80.467 0 30.383 19.433 47.077 54.712 47.077 50.895 0 77.538-40.484 77.538-80.467 0-30.3821-19.317-47.077-54.404-47.077zm76.381 10.95c1.812 3.6629 3.354 7.5571 4.55 11.6055-1.196-4.1255-2.699-7.9812-4.55-11.6055z" fill="url(#e)"/><path d="m920.243 17.6719-109.501 204.9271h-31.038l-22.826-162.785-89.297 162.785h-31.038l-27.529-204.9271h28.686l22.247 167.1801 90.762-167.1801h27.221l22.826 167.4501 90.184-167.4501h29.264z" fill="url(#f)"/><path d="m819.716 237.597h-53.015l-18.353-131.014-71.87 131.014h-53.015l-31.539-234.88509h58.914l17.929 134.60009 73.065-134.60009h49.198l18.392 134.83109 72.602-134.83109h63.194z" fill="url(#g)"/></svg>