<svg fill="none" height="713" viewBox="0 0 946 713" width="946" xmlns="http://www.w3.org/2000/svg"><path d="m483.658 702.914c191.337 0 346.446-155.11 346.446-346.448 0-191.337-155.109-346.4467-346.446-346.4467s-346.446 155.1097-346.446 346.4467c0 191.338 155.109 346.448 346.446 346.448z" fill="#eb5f39"/><g fill="#1d1d1b"><path clip-rule="evenodd" d="m127.392 356.466c0-196.819 159.453-356.273373 356.272-356.273373s356.272 159.454373 356.272 356.273373c-.285 196.809-159.729 356.274-356.272 356.274-196.819 0-356.272-159.454-356.272-356.274zm356.268-336.6208c-185.842.0021-336.616 150.7778-336.616 336.6208 0 185.845 150.776 336.621 336.62 336.621 185.841 0 336.615-150.772 336.62-336.613-.276-185.849-150.776-336.3503-336.624-336.6288z" fill-rule="evenodd"/><path d="m103.819 153.764c1.685 0 11.23 28.636 28.637 85.629l16.283 53.062c1.685 0 11.511-33.409 29.479-99.948 7.3-25.829 11.792-38.743 13.195-38.743h32.567l1.966 2.246-59.239 197.649h-32.567c-2.246 0-8.984-19.934-20.495-60.081l-24.4249-77.487h-.8422l-39.8666 137.568h-32.2863l-1.9652-2.246 56.9923-197.649z"/><path d="m305.961 153.477v1.123c-35.094 124.654-54.185 191.192-57.835 199.334h-33.97l-1.966-2.246 59.8-198.211z"/><path d="m361.547 153.484h92.928l1.966 2.246c-5.896 21.056-9.546 31.444-11.23 31.444h-75.242c-2.526 0-8.422 18.249-17.406 55.027l-21.618 74.68v1.123l2.246 2.246h73.557l2.246 1.965c-5.615 21.057-8.984 31.725-10.107 31.725h-83.945c-12.633 0-20.494-5.334-23.583-16.283v-3.089c0-5.895 15.722-61.484 46.886-166.485 5.615-10.669 13.476-15.442 23.302-14.599z"/><path d="m608.32 153.477 2.246 2.246c-5.615 21.057-8.984 31.444-10.107 31.444h-79.733l-13.476 49.132h76.645l1.965 2.246c-5.615 21.056-8.984 31.444-10.107 31.444h-78.61l-14.318 50.255h76.364l2.246 1.965c-5.896 21.056-10.107 31.725-12.353 31.725h-110.335l-1.123-1.123h-1.123l59.238-199.334z"/></g><path d="m94.2659 151.517c1.6845 0 11.2301 28.637 28.6361 85.63l16.284 53.062c1.684 0 11.511-33.41 29.76-99.948 7.299-25.829 11.791-38.744 13.195-38.744h32.567l2.246 2.246-59.239 197.649h-32.567c-2.246 0-8.984-19.933-20.494-60.08l-24.4256-77.488h-.8423l-39.8665 137.568h-32.84783l-2.24599-1.965 56.99232-197.649z" fill="#fff"/><path d="m296.123 151.238v.842c-35.094 124.654-54.185 191.192-57.835 199.333h-33.971l-2.246-1.965 59.8-198.21z" fill="#fff"/><path d="m351.998 151.238h92.929l1.965 1.965c-5.896 21.056-9.546 31.444-11.23 31.444h-75.522c-2.527 0-8.423 18.53-17.407 55.027l-21.617 74.68v.842l2.246 2.246h73.556l2.246 1.966c-5.615 21.056-8.984 31.725-10.107 31.725h-83.663c-12.634 0-20.495-5.335-23.583-16.284v-3.088c0-5.896 15.722-61.485 46.885-166.486 5.615-10.107 13.195-14.88 23.302-14.037z" fill="#fff"/><path d="m598.491 151.237 1.965 1.965c-5.615 21.057-8.984 31.444-10.107 31.444h-79.733l-13.476 49.132h76.645l1.965 2.246c-5.615 21.056-8.984 31.725-10.107 31.444h-78.61l-14.319 50.255h76.926l2.246 1.965c-5.896 21.056-10.107 31.725-12.353 31.725h-110.335l-1.123-1.123h-1.123l59.238-199.334z" fill="#fff"/><path d="m158.56 353.379h-34.532c-3.089 0-5.615 0-23.022-62.046l-21.8983-70.188-38.7436 132.234h-35.65527l-3.93051-4.211 58.67688-201.299h34.5323c3.0882 0 4.7727 0 30.8825 87.594l14.038 45.763c3.369-9.827 10.668-34.252 26.671-92.648 11.791-40.709 13.195-40.709 16.003-40.709h33.97l4.212 4.211zm-33.69-5.615h29.479l58.677-193.999h-30.321c-1.123 2.246-4.212 10.107-11.792 36.497-27.794 101.913-29.479 101.913-32.567 101.913h-1.965l-16.845-55.027c-19.091-63.169-24.987-80.014-26.9523-83.664h-29.198l-56.43088 193.999h29.19808l40.1473-137.568h5.0535l24.9873 79.452c12.633 45.201 17.125 55.87 18.529 58.397z" fill="#000"/><path d="m239.423 353.66h-37.059l-4.212-4.212 61.485-201.579h38.743v4.492c-35.655 125.776-54.746 190.911-58.396 199.333zm-34.533-5.616h30.883c4.773-13.195 23.864-78.61 56.711-194.56h-28.355z" fill="#000"/><path d="m388.217 353.94-83.944-.281c-14.038 0-22.741-6.176-26.11-18.529v-.281-3.369c0-3.931 5.054-25.829 47.447-167.328l.281-.561c6.176-11.23 14.879-16.565 26.109-15.722l94.052.28 3.93 4.212-.28 1.403c-9.546 33.69-11.23 33.69-14.038 33.69l-74.68-.28c-1.403 2.246-5.615 11.791-15.722 53.062l-21.337 73.837.281.281 73.276.281 4.211 3.93-.561 1.685c-9.265 33.129-10.388 33.69-12.915 33.69zm-104.72-19.933c2.808 9.265 9.546 14.037 20.776 14.037l82.54.281c.843-1.965 3.089-8.422 8.423-28.075l-73.557-.281-3.649-3.65v-2.807l21.617-74.68c14.038-57.273 17.126-57.273 20.214-57.273l74.399.28c.843-1.684 3.369-7.58 9.265-28.075l-92.086-.28c-8.703-.843-15.441 3.369-20.776 12.353-39.024 129.707-47.166 161.432-47.166 165.362z" fill="#000"/><path d="m538.698 354.22-111.177-.281-1.123-1.123h-3.65l61.204-204.667 115.669.28 4.211 3.931-.281 1.684c-8.984 33.41-10.387 33.691-12.914 33.691l-77.487-.281-12.073 43.516 74.119.281 3.93 4.211-.281 1.404c-8.984 33.129-10.107 33.69-12.914 33.69l-76.645-.281-12.634 44.64 73.837.281 4.212 3.93-.562 1.685c-10.107 32.848-12.914 33.409-15.441 33.409zm-109.212-5.896 108.089.281c1.123-1.404 3.931-6.457 9.826-28.075l-79.171-.281 16.002-55.869 79.453.28c.842-1.965 3.369-8.422 8.422-28.075l-79.171-.28 15.16-54.466 80.295.28c3.369-9.264 6.176-18.529 8.422-27.794l-109.212-.281z" fill="#000"/><path d="m437.895 414.858h88.717l1.965 1.965c-5.615 20.214-9.265 30.041-10.668 30.041h-72.153c-2.527 0-7.861 17.406-16.564 52.781l-20.495 71.311v.842l1.965 1.965h70.188l1.965 1.965c-5.334 20.215-8.703 30.322-9.826 30.322h-80.014c-12.073 0-19.372-5.054-22.46-15.442v-2.807c0-5.615 14.879-58.677 44.639-158.906 5.896-10.107 13.195-14.599 22.741-14.037z" fill="#1d1d1b"/><path d="m577.992 414.577h88.998c10.388 1.404 15.441 6.738 15.441 15.442-28.075 101.912-43.516 155.255-46.885 160.309-9.265 10.387-19.653 15.441-31.164 15.441h-73.275c-14.319-1.685-21.337-7.019-21.337-16.564v-4.773c23.302-83.945 37.901-135.322 44.358-154.413.562-1.404 1.123-2.527 1.965-3.65 6.738-7.861 14.319-11.792 21.899-11.792zm-31.444 157.221 2.807 1.965h49.974c8.423 0 9.265-5.615 12.634-16.564l31.444-106.405c-1.123-2.527-1.965-3.93-2.808-3.93h-55.588c-2.527 0-7.861 17.406-16.565 52.781z" fill="#1d1d1b"/><path d="m736.9 414.577h88.998c10.388 1.404 15.441 6.738 15.441 15.442-28.075 101.912-43.797 155.255-46.885 160.309-9.265 10.387-19.653 15.441-31.163 15.441h-73.276c-14.318-1.685-21.337-7.019-21.337-16.564v-4.773c23.302-83.945 37.901-135.322 44.358-154.413.562-1.404 1.123-2.527 1.966-3.65 7.018-7.861 14.318-11.792 21.898-11.792zm-31.444 157.221 2.808 1.965h49.973c8.423 0 7.58-2.807 12.634-16.564l31.444-106.405c-1.123-2.527-1.965-3.93-2.808-3.93h-55.869c-2.527 0-7.861 17.406-16.564 52.781z" fill="#1d1d1b"/><path d="m913.202 415.419.842.843h1.123l-44.92 157.501h72.995l1.966 1.965c-5.335 19.934-8.704 30.041-9.827 30.041h-105.842l-1.966-1.966 54.466-188.665h31.163z" fill="#1d1d1b"/><path d="m426.664 415.425h88.717l1.966 1.965c-5.615 19.934-9.265 30.041-10.669 30.041h-72.153c-2.526 0-7.861 17.406-16.564 52.781l-20.495 71.03v.842l1.965 1.966h70.188l1.965 1.965c-5.334 20.214-8.703 30.321-9.826 30.321h-80.014c-12.072 0-19.372-5.334-22.46-15.722v-2.808c0-5.615 14.88-58.677 44.64-158.905 5.895-9.545 13.476-14.318 22.74-13.476z" fill="#fff"/><path d="m566.761 415.143h88.998c10.388 1.404 15.442 6.739 15.442 15.442-28.075 101.913-43.797 155.255-46.886 160.028-9.264 10.388-19.652 15.722-31.163 15.722h-73.276c-14.318-1.684-21.337-7.019-21.337-16.564v-4.773c23.302-83.664 37.901-135.322 44.359-154.413.561-1.404 1.123-2.527 1.965-3.65 6.738-7.861 14.318-11.792 21.898-11.792zm-31.444 157.221 2.808 1.966h49.974c8.422 0 9.264-5.615 12.633-16.565l31.164-106.405c-1.123-2.526-1.966-3.93-2.808-3.93h-55.869c-2.527 0-8.142 17.407-16.565 52.781z" fill="#fff"/><path d="m725.67 415.143h88.997c10.388 1.404 15.723 6.739 15.723 15.442-28.076 101.913-43.798 155.255-46.886 160.028-9.265 10.388-19.652 15.722-31.163 15.722h-73.557c-14.318-1.684-21.337-7.019-21.337-16.564v-4.773c23.303-83.664 37.902-135.322 44.359-154.413.561-1.404 1.123-2.527 1.965-3.65 7.019-7.861 14.318-11.792 21.899-11.792zm-31.164 157.221 2.808 1.966h49.973c8.423 0 7.581-2.808 12.634-16.565l31.444-106.405c-.842-2.526-1.965-3.93-2.807-3.93h-55.589c-2.527 0-7.861 17.407-16.564 52.781z" fill="#fff"/><path d="m901.981 415.706.842.842h1.123l-44.92 157.501h72.995l1.965 1.966c-5.334 19.933-8.703 30.04-9.826 30.04h-106.123l-1.966-1.965 54.466-188.665z" fill="#fff"/><path d="m460.922 609.143h-80.014c-13.196 0-21.899-6.176-24.987-17.687v-.843-2.807c0-3.931 4.773-24.425 44.92-159.748l.281-.561c5.895-10.949 14.318-16.003 24.987-15.161h89.84l3.649 3.931-.28 1.404c-8.984 32.286-10.669 32.286-13.476 32.286h-71.311c-1.404 2.246-5.334 11.511-14.599 50.535l-20.214 70.469.281.281h70.187l3.931 3.93-.562 1.685c-8.984 32.286-9.826 32.286-12.633 32.286zm-99.386-18.53c2.527 8.984 8.984 13.196 19.652 13.196h78.611c3.088-8.704 5.895-17.407 8.141-26.391h-70.187l-3.65-3.65v-2.807l20.495-71.311c13.195-54.747 16.283-54.747 19.091-54.747h71.03c.842-1.684 3.369-7.299 8.703-26.39h-87.875c-8.422-.562-14.599 3.088-19.653 11.791-36.778 123.531-44.639 154.133-44.639 157.783z" fill="#000"/><path d="m592.027 609.143h-73.557c-19.652-2.246-23.864-11.792-23.864-19.372v-5.615c23.022-83.383 37.902-135.322 44.359-154.414.562-1.684 1.404-3.369 2.527-4.492 7.58-8.703 15.722-12.914 24.144-12.914h89.279c14.88 1.965 17.968 11.23 17.968 18.249v.842c-37.901 137.287-45.201 157.782-47.447 161.151l-.281.281c-9.545 10.949-20.775 16.284-33.128 16.284zm-72.995-5.615h72.995c10.668 0 20.214-4.773 28.917-14.599 2.246-3.931 12.353-34.814 46.324-158.906 0-4.773-1.685-10.949-12.915-12.353h-88.717c-6.738 0-13.476 3.65-19.933 10.95-.561.842-1.123 1.684-1.404 2.526-6.176 19.091-21.056 70.75-44.078 153.852v4.492c0 3.088 0 12.072 18.811 14.038zm68.222-26.391h-50.535l-5.334-3.369 22.179-74.399c13.195-54.747 16.284-54.747 19.091-54.747h55.589c3.369 0 5.053 4.212 5.615 5.615l.28.843-.28.842-31.164 106.405c-.28 1.123-.842 2.246-1.123 3.369-2.807 8.984-4.772 15.441-14.318 15.441zm-49.131-5.615h49.131c5.334 0 6.177-2.246 8.984-11.23.281-1.123.562-2.246 1.123-3.369l30.883-105.563c-.281-.561-.281-.842-.562-1.123h-53.904c-1.404 2.246-5.334 11.511-14.599 50.536l-21.056 70.468z" fill="#000"/><path d="m750.935 609.143h-73.557c-19.652-2.246-23.863-11.792-23.863-19.372v-5.615c23.021-83.383 37.901-135.322 44.358-154.414.562-1.684 1.404-3.369 2.527-4.492 7.58-8.703 15.722-12.914 24.144-12.914h89.279c14.88 1.965 17.968 11.23 17.968 18.249v.842c-37.62 137.287-44.92 157.782-47.166 161.151l-.281.281c-9.826 10.949-21.056 16.284-33.409 16.284zm-72.995-5.615h72.995c10.669 0 20.214-4.773 28.917-14.599 2.246-3.931 12.353-34.814 46.324-158.906 0-4.773-1.684-10.949-12.914-12.353h-88.718c-6.738 0-13.475 3.65-19.933 10.95-.561.842-1.123 1.684-1.403 2.526-6.177 18.811-21.057 70.75-44.078 153.852v4.492c0 3.088 0 12.072 18.81 14.038zm68.222-26.391h-50.816l-5.334-3.65 22.179-74.399c13.196-54.746 16.284-54.746 19.372-54.746h55.87c3.369 0 5.053 4.211 5.615 5.615l.28.842-.28.842-31.164 106.405c-.842 2.527-1.684 4.492-2.246 6.176-3.088 8.984-4.492 12.915-13.476 12.915zm-49.131-5.615h49.131c5.054 0 5.054-.281 7.861-8.423.562-1.684 1.404-3.93 2.246-6.176l30.883-105.282c-.281-.281-.281-.842-.562-1.123h-54.184c-1.404 2.246-5.335 11.511-14.6 50.535l-21.056 70.469z" fill="#000"/><path d="m923.319 609.142h-106.966l-3.93-3.93 55.588-192.315h34.252l.842.842h3.65l-44.92 157.783h70.468l3.931 3.93-.281 1.685c-8.984 32.005-10.107 32.005-12.634 32.005zm-105-5.615h103.316c3.088-8.703 5.895-17.406 8.142-26.39h-75.522l44.92-158.344h-27.514z" fill="#000"/><path d="m663.349 158.818h7.3c.561 0 1.123 8.142 1.403 24.425.281 2.246.562 9.546.843 21.899l-.843.561h-34.251l-.281-.28h-.281zm0 15.16-12.634 23.864h13.757l-.561-23.583v-.281z" fill="#1d1d1b"/><path d="m649.592 239.393c.281 0 2.527 6.738 6.738 20.214l3.93 12.353c.281 0 2.808-7.861 7.019-23.583.562-3.089 1.685-6.177 3.088-8.984h7.581l.561.561-14.037 46.324h-7.581c-.561 0-2.246-4.773-4.772-14.037l-5.615-18.249h-.281l-9.265 32.286h-7.58l-.562-.561 13.476-46.324z" fill="#1d1d1b"/><path d="m660.817 319.969c2.246.562 3.369 1.685 3.369 3.369v.843c-6.457 23.863-10.388 36.778-11.23 38.743-1.965 2.808-5.053 4.492-8.422 4.212h-23.864l-.562-.562 13.476-46.605zm-21.337 7.861-8.703 31.164h12.914c1.966 0 3.369-2.246 3.931-6.458.281-.28 2.527-8.422 7.019-24.144l-.843-.562z" fill="#1d1d1b"/><path d="m660.826 157.133h7.299c.562 0 1.123 8.142 1.404 24.425.281 2.246.561 9.546.842 21.899l-.842.561h-34.252l-.28-.281h-.281zm0 15.16-12.634 23.864h13.757l-.562-23.583v-.281z" fill="#fff"/><path d="m647.339 237.703c.281 0 2.527 6.738 6.738 20.214l3.931 12.353c.28 0 2.807-7.861 7.018-23.583.562-3.089 1.685-6.177 3.089-8.984h7.58l.561.561-14.037 46.324h-7.58c-.562 0-2.246-4.773-4.773-14.038l-5.615-18.248h-.281l-9.265 32.286h-7.58l-.562-.562 13.477-46.323z" fill="#fff"/><path d="m658.294 318.277c2.246.562 3.369 1.685 3.369 3.369v.843c-6.458 23.863-10.388 36.778-11.23 38.743-1.966 2.808-5.054 4.492-8.423 4.212h-23.864l-.561-.562 13.476-46.605zm-21.057 7.861-8.984 31.164h12.915c1.965 0 3.369-2.246 3.93-6.458.281-.28 2.808-8.422 7.019-24.144l-.842-.562z" fill="#fff"/><path d="m670.36 205.422h-35.094l-.28-.281h-1.965l.842-1.965 26.109-47.447h8.142c1.685 0 2.246 0 2.808 25.829.281 2.246.561 9.265.842 21.899v.842zm-32.848-2.808h31.725c-.28-11.791-.561-18.81-.842-20.775-.281-16.284-.842-21.337-1.123-23.303h-5.615zm25.83-5.053h-17.407l14.037-26.672h2.527v1.404zm-12.634-2.808h9.826l-.562-17.687z" fill="#000"/><path d="m663.06 285.998h-8.703c-1.404 0-1.965 0-6.176-15.161l-4.492-14.038-8.423 29.199h-9.265l-1.403-1.404 14.037-48.289h8.703c1.404 0 1.685 0 8.142 21.056l2.527 8.422c.842-3.088 2.527-8.984 5.615-19.371 3.088-10.388 3.088-10.107 4.492-10.107h8.142l1.403 1.403zm-7.861-2.808h5.896l13.195-44.078h-5.615c-.842 2.527-1.684 5.334-2.526 8.142-6.738 24.425-7.019 24.425-8.423 24.425h-1.123l-4.211-13.476c-3.931-13.195-5.615-17.687-6.177-19.091h-5.895l-12.634 44.078h5.334l9.265-32.286h1.965l.562 1.123 5.615 18.248c1.684 4.492 3.088 8.704 4.772 12.915z" fill="#000"/><path d="m642.008 366.567h-24.144l-1.404-1.404 14.037-48.289h28.356c3.931.842 4.492 3.369 4.492 4.772v1.123c-8.703 32.287-10.668 37.621-11.51 38.744-1.966 3.369-5.896 5.334-9.827 5.054zm-22.46-2.808h22.46c2.808.281 5.615-1.123 7.3-3.65.561-1.123 3.088-8.703 10.949-37.901v-.562c0-.561 0-1.403-2.246-1.965h-25.829zm21.899-5.053h-14.88l9.545-33.971h15.723l1.965 1.403-.281.843c-5.053 18.529-6.457 23.021-7.019 24.144-.561 5.054-2.246 7.581-5.053 7.581zm-11.23-2.808h11.23c1.684 0 2.246-3.65 2.527-5.334v-.562l.28-.281c.281-.842 1.685-5.053 6.458-22.46h-12.073z" fill="#000"/></svg>