<svg fill="none" height="946" viewBox="0 0 819 946" width="819" xmlns="http://www.w3.org/2000/svg"><path d="m708.549 157.082c29.416-90.6532-84.473-141.0162-132.547-90.6532-61.694-100.8404-191.951-28.6153-191.951-28.6153s-70.852-78.5204-162.65-6.9822c-32.621-33.19372-131.8594-40.9771-129.6846 119.0397-110.5697 9.958-108.8528 163.451-58.3753 186.686l727.7449 63.297c71.882-27.699 98.208-217.247-52.537-242.886z" fill="#ecd7b3"/><path d="m248.754 44.909c7.097-67.1887-122.359-55.8571-102.329 19.5729-48.8745 18.0849-14.88 92.0271 24.495 72.3391 1.03 57.689 99.238 44.526 85.503-17.627 36.742 15.224 68.333-82.1828-7.784-74.3994z" fill="#fff7d5"/><path d="m231.475 65.1693c14.766-25.067-32.507-54.1402-36.856-8.5846-28.616-23.8079-64.099 41.8928-13.85 43.6093-22.778 36.857 38.573 58.49 49.562 24.381 49.218-5.037 35.025-66.9601 1.144-59.2912z" fill="#ecd7b3"/><path d="m187.869 217.753c36.398-32.049-51.394-116.064-84.473-29.416-68.7913-41.893-102.671837 84.357-34.6818 120.985 33.0798 17.856 221.9408 6.41 119.1548-91.569z" fill="#fff7d5"/><path d="m115.872 217.515c-19.0001-28.73-76.1164 7.44-29.4161 35.483-99.238 45.326 179.2461 78.291 92.9421-4.007 21.176-55.971-53.224-72.11-63.526-31.476z" fill="#ecd7b3"/><path d="m781.111 261.821c32.851-28.844-46.357-104.618-76.117-26.441-61.923-37.772-114.346 94.087-31.247 108.967-6.41 55.972 82.183 56.888 82.526 9.386 56.43 25.64 91.913-76.689 24.838-91.798z" fill="#fff7d5"/><path d="m716.219 261.585c-17.055-25.869-68.563 6.638-26.555 31.934-37.2 17.055 9.271 81.955 35.483 33.652 24.723 39.375 75.887-10.874 48.188-37.314 19.115-50.478-47.96-64.9-57.231-28.272z" fill="#ecd7b3"/><path d="m469.207 79.7094c34.223-30.1033-48.303-108.9671-79.322-27.5851-64.556-39.4891-119.154 97.9787-32.507 113.5457-6.753 58.375 85.617 59.291 85.96 9.729 58.833 26.67 95.804-79.8939 25.869-95.6896z" fill="#fff7d5"/><path d="m401.673 79.476c-17.856-27.0129-71.424 6.9821-27.585 33.308-38.803 17.742 9.614 85.388 37.085 35.025 25.754 40.977 79.093-11.331 50.249-38.802 19.916-52.5378-50.02-67.7611-59.635-29.531z" fill="#ecd7b3"/><path d="m339.637 222.559c9.385-46.243-110.112-62.725-84.015 24.952-79.207 5.952-45.899 115.835 45.556 115.835 130.714 0 107.135-169.975 38.459-140.787z" fill="#fff7d5"/><path d="m271.536 265.252c-25.868 124.191 155.897 79.436 80.123-13.163-17.054-56.544-71.767-27.356-80.123 13.163z" fill="#ecd7b3"/><path d="m619.494 115.639c9.157-45.3262-107.822-61.3508-82.297 24.495-77.605 5.838-36.17 152.234 44.64 113.431 31.133 52.309 107.364-2.06 76.574-43.152 64.9-13.048 28.387-123.2744-38.802-94.659z" fill="#fff7d5"/><path d="m564.104 155.702c-31.592-11.675-54.141 48.302-1.717 44.067-20.718 37.773 61.465 64.9 52.308 6.868 46.815 18.543 57.689-56.544 16.826-62.038-16.597-55.3993-83.328-26.212-67.303 11.103z" fill="#ecd7b3"/><path d="m27.8531 321.109 124.9919 623.814h102.099l-83.099-623.814c-5.837-87.677-155.3236-87.105-143.9919 0z" fill="#ec4c5c"/><path d="m171.842 321.111 83.099 623.814h102.1l-41.321-623.814c-.229-87.906-149.715-87.677-143.878 0z" fill="#f8f8f8"/><path d="m315.719 321.111 41.321 623.814h102.099l.458-623.814c5.265-87.677-144.107-87.906-143.878 0z" fill="#ec4c5c"/><path d="m459.705 321.098-.458 623.814h101.069l41.893-623.814c10.645-87.219-137.353-87.677-142.619 0z" fill="#f8f8f8"/><path d="m560.321 944.92 65.243-44.526 30.561-557.998c8.928-67.304-47.272-93.057-53.911-21.176l-41.893 623.814z" fill="#c84747"/><path d="m680.281 863.413 29.531-499.967c10.759-62.725-44.64-88.479-53.568-21.175l-30.561 557.998z" fill="#e7e7e7"/><path d="m725.488 832.741 36.169-448.23c12.248-58.146-41.091-83.9-51.851-21.175l-29.531 499.966 45.213-30.675z" fill="#c84747"/><path d="m755.357 812.486 35.941-408.855c3.434-44.984-24.381-62.038-29.646-19.115l-36.17 448.23z" fill="#e7e7e7"/></svg>