<svg fill="none" height="945" viewBox="0 0 693 945" width="693" xmlns="http://www.w3.org/2000/svg"><path d="m334.175 395.524c-.957 0-14.149 0-15.107.106-10.532 1.135-76.387 8.653-31.314-104.226 31.172-78.089 49.258-184.301 12.27-236.8571-59.116-84.1537-174.194-56.59897-162.243-8.2629 41.031 166.002-51.705 215.438-99.6156 320.231-48.5843 106.176-43.26487 256.894-20.9232 391.086 13.9725 83.87 49.6483 186.358 180.4718 186.358h182.244c10.887 0 19.966-8.333 20.923-19.15l44.435-503.504c1.064-12.021-8.192-22.483-20.249-22.838l-90.892-2.908z" fill="#ffdd67"/><path d="m44.0104 725.401c-21.0296-130.078-23.5475-234.907 18.4407-340.977 46.7399-117.986 95.9629-121.461 95.9629-354.8076 0-11.6674 6.1-19.82387 12.412-24.96601-24.186 8.15651-34.399 18.79541-34.328 39.68311.355 174.5135-50.4285 217.4235-98.339 322.2175-48.5489 106.176-42.98122 256.858-20.9232 391.086 8.0856 49.152 22.1289 100.147 57.7692 138.093-26.349-50.003-30.7109-165.435-30.9946-170.294z" fill="#eba353"/><path d="m347.051 621.778c-10.533 69.011-87.984 145.505-130.327 181.713-1.312 1.135-2.695-.39-1.95-1.951 25.143-55.677 130.184-168.52 106.921-336.508 13.866 3.546 33.654 4.149 33.654 4.149 16.313 34.009-3.617 133.128-8.298 152.633z" fill="#eba353"/><path d="m589.443 540.852h-243.702c-85.005 0-85.005-141.888 0-141.888h243.702c85.005 0 85.005 141.888 0 141.888z" fill="#ffdd67"/><path d="m608.337 517.873h-243.666c-57.379 0-93.233-79.863-55.713-107.488-46.385 34.151-33.37 131.071 36.669 131.071h243.667c27.625 0 46.137-15.072 55.783-35.357-9.682 7.27-21.845 11.774-36.775 11.774z" fill="#eba353"/><path d="m616.003 687.276h-292.393c-101.992 0-101.992-149.335 0-149.335h292.428c101.992 0 101.992 149.335 0 149.335z" fill="#ffdd67"/><path d="m638.695 662.491h-292.392c-68.834 0-91.034-67.911-66.954-112.098-54.578 35.604-40.712 138.128 43.335 138.128l293.173-1.241c33.194 0 55.358-15.888 66.954-37.165-11.596 7.589-26.242 12.376-44.151 12.376z" fill="#eba353"/><path d="m588.831 823.738h-247.177c-86.211 0-86.211-138.98 0-138.98h247.177c86.211 0 86.211 138.98 0 138.98z" fill="#ffdd67"/><path d="m607.521 799.197h-247.177c-58.195 0-76.919-63.231-56.634-104.368-46.102 33.158-33.761 127.454 37.342 127.454l247.78 1.49c28.016 0 46.776-14.788 56.599-34.648-9.858 7.093-22.767 10.072-37.91 10.072z" fill="#eba353"/><path d="m560.576 944.92h-159.726c-92.204 0-92.204-125.681 0-125.681h159.726c92.239 0 92.239 125.681 0 125.681z" fill="#ffdd67"/><path d="m581.105 924.065h-159.796c-62.167 0-82.239-57.167-60.465-94.403-49.329 30.002-36.101 115.255 39.896 115.255h159.726c29.966 0 50.038-13.37 60.535-31.314-10.497 6.383-23.654 10.462-39.86 10.462z" fill="#eba353"/></svg>