<svg fill="none" height="945" viewBox="0 0 733 945" width="733" xmlns="http://www.w3.org/2000/svg"><path d="m677.994 868.95c-23.047 82.431-151.015 75.368-337.251 75.368-186.237 0-314.2043 7.063-337.25153-75.368-26.29987-94.14 151.01453-197.667 337.25153-197.667 186.236 0 363.551 103.527 337.251 197.667z" fill="#efbe45"/><path d="m616.386 823.143c0 55.388-87.914 7.899-137.819 28.437-49.904 20.631-61.707 56.875-137.818 56.875-76.112 0-88.1-36.709-137.819-56.875-50.927-20.631-137.8187 24.906-137.8187-28.437 0-62.822 123.5067-190.326 275.6377-190.326 152.316 0 275.637 127.504 275.637 190.326z" fill="#82be4f"/><path d="m506.166 766.444c0 30.389-58.826 27.601-165.419 27.601-106.594 0-165.42 2.881-165.42-27.601s58.826-82.71 165.42-82.71c106.593 0 165.419 52.228 165.419 82.71z" fill="#699535"/><path d="m299.381 744.706s-55.109-283.257 172.204-535.011l48.324 24.627s-137.818 88.007-137.818 510.384c0 0-41.355 35.5-82.71 0z" fill="#efbe45"/><path d="m592.503 173.916c-26.951-.093-52.228 6.784-73.696 18.958 8.271-23.233 10.78-49.347 5.855-75.925-13.754-76.2977-82.338-127.7822-153.152-114.95756-8.736 1.57985-17.1 3.99609-24.999 7.34165 58.361 3.62441 112.262 59.56961 126.016 136.05291 8.364 45.444 2.881 90.981-15.891 123.786 29.18-24.162 70.814-39.218 117.001-38.939 77.692.372 142.094 43.678 155.848 100.646 1.766-8.364 2.881-17.007 2.881-25.928.371-71.93-62.172-130.663-139.771-131.035z" fill="#699535"/><path d="m377.826 138.228c6.784 2.417 13.382 5.298 19.515 8.643-1.672-1.487-3.345-2.881-5.111-4.368-71.929-60.5916-165.419-71-222.573-29.088 4.833-9.2 10.595-18.0284 17.657-26.2994 55.946-66.9113 159.751-72.0226 231.588-11.6165 53.715 45.0719 74.439 113.9349 58.454 173.7839 55.76-25.743 126.76-17.1 180.01 27.786 71.93 60.406 84.754 163.654 28.902 230.565-6.97 8.271-14.59 15.52-22.861 21.933 31.318-63.659 4.832-154.082-67.19-214.581-1.766-1.487-3.439-2.881-5.205-4.275 4.275 5.576 8.364 11.43 11.989 17.843 37.173 65.331 18.4 146.368-42.192 181.032-7.434 4.275-15.148 7.62-23.14 10.13 41.169-39.125 50.462-116.816 8.922-179.731-38.474-58.455-101.111-45.259-101.111-45.259s0-72.208-68.955-102.132c-75.554-32.805-143.767-4.089-175.085 43.213 1.115-8.271 3.067-16.449 5.948-24.627 23.512-65.703 99.902-98.415 170.624-72.952z" fill="#8ecc52"/><g fill="#88664c"><path d="m285.075 628.64s-5.948 55.109 55.666 55.109c43.4 0 54.458-55.109 54.458-55.109z"/><path d="m300.881 518.315s-14.404 46.281 46.373 54.552c42.935 5.854 62.451-39.682 62.451-39.682z"/><path d="m328.475 408.1s-14.497 46.28 46.373 54.551c42.935 5.855 62.358-39.682 62.358-39.682z"/><path d="m373.925 297.802s-25.743 36.43 32.712 52.786c41.355 11.523 71.837-23.605 71.837-23.605z"/></g></svg>